<?xml version="1.0" encoding="UTF-8"?>
<svg id="Layer_2" data-name="Layer 2" xmlns="http://www.w3.org/2000/svg" viewBox="0 0 263.51 149.77">
  <defs>
    <style>
      .cls-1 {
        fill: #807f83;
      }

      .cls-2 {
        fill: #06357a;
      }
    </style>
  </defs>
  <g id="Layer_1-2" data-name="Layer 1">
    <g id="Layer_2-2" data-name="Layer 2">
      <g id="Layer_1-2" data-name="Layer 1-2">
        <polygon class="cls-1" points="33.98 0 0 17.2 0 0 33.98 0"/>
        <path class="cls-2" d="M112.43,43.7v106.07h33.25V85.12s.58-12.25,12.83-12.25,12.84,12.25,12.84,12.25v64.65h33.54V84.77s.29-12.25,12.54-12.25,12.25,12.84,12.25,12.84v64.36h33.83V85.12s-.87-41.42-44.33-41.42c0,0-16.62,0-28.58,9,0,0-6.13-9.33-26-9.33h-52.2l.03,.33Z"/>
        <path class="cls-2" d="M60.16,43.75s-16.93-.95-26.16,6.92V4.74L.22,22v127.77H64.75s38.5-3.22,38.5-33.91v-35.44s-.66-36.67-43.09-36.67Zm9.55,64c0,13.41-11.81,14.29-11.81,14.29h-23.9v-39.52s2.78-10.36,18.24-10.36,17.5,10.5,17.5,10.5l-.03,25.09Z"/>
      </g>
    </g>
  </g>
</svg>