<svg xmlns="http://www.w3.org/2000/svg" viewBox="0 0 566.7 149.77"><defs><style>.cls-1{fill:#fff;}</style></defs><g id="Layer_2" data-name="Layer 2"><g id="Layer_1-2" data-name="Layer 1"><path class="cls-1" d="M316,65.63a7.35,7.35,0,0,1,7.14,4.83c1.17,2.9.8,6.26-2.15,8.36a7.6,7.6,0,0,1,4.58,7.31c0,4.41-2.9,8.87-8.52,8.87H303.74V65.63Zm-8,11.68h7.94c4.62,0,4.71-7.64.09-7.64h-8Zm0,13.57H317c2.85,0,4.28-2.39,4.28-4.71s-1.43-4.66-4.28-4.66h-9.08Z"/><path class="cls-1" d="M336.42,90.75h13.65V95H332.13V65.63H350v4.25H336.42v8.27h13.31v4.29H336.42Z"/><path class="cls-1" d="M363.3,78h12.43V65.63H380V95h-4.29V82.23H363.3V95h-4.25V65.63h4.25Z"/><path class="cls-1" d="M388.83,95V65.55l3.28,0L406.43,86.3V65.59h4.2V95h-3.36l-14.2-20.54V95Z"/><path class="cls-1" d="M435.2,95H431V65.59h3.44l9.71,14.28,9.7-14.28h3.36V95H453V74.29l-7.69,11.42h-2.39L435.2,74.29Z"/><path class="cls-1" d="M470.52,90.75h13.65V95H466.24V65.63h17.89v4.25H470.52v8.27h13.32v4.29H470.52Z"/><path class="cls-1" d="M492.53,65.63l8,12.9,8-12.9h5.05L502.69,83V95h-4.28V83L487.53,65.63Z"/><path class="cls-1" d="M522.85,90.75H536.5V95H518.57V65.63h17.89v4.25H522.85v8.27h13.32v4.29H522.85Z"/><path class="cls-1" d="M550.49,80.08h5a5.11,5.11,0,1,0,0-10.2h-6.51V95h-4.2V65.59h10.71A9.11,9.11,0,0,1,565,75a8.85,8.85,0,0,1-7.6,9l9.28,11h-5.5L550.49,82.1Z"/><path class="cls-1" d="M312.94,133.71c-3.75,0-6.44-.88-8.82-3.29l2.52-2.49a8.23,8.23,0,0,0,6.37,2.38c3.26,0,5.15-1.4,5.15-3.81a3.36,3.36,0,0,0-1-2.59,4.3,4.3,0,0,0-2.73-1l-2.94-.42a8.5,8.5,0,0,1-4.73-2,6.17,6.17,0,0,1-1.82-4.76c0-4.34,3.15-7.32,8.33-7.32A10.38,10.38,0,0,1,321,111.2l-2.42,2.38a7.31,7.31,0,0,0-5.42-1.93c-2.94,0-4.56,1.68-4.56,3.89a3,3,0,0,0,.95,2.31,5.54,5.54,0,0,0,2.8,1.15l2.84.43a8.19,8.19,0,0,1,4.65,1.85,6.51,6.51,0,0,1,2,5.11C321.9,131,318.16,133.71,312.94,133.71Z"/><path class="cls-1" d="M326.45,112.25v-3.78h3.78v3.78Zm.1,21.25V115.75h3.57V133.5Z"/><path class="cls-1" d="M346.61,133.5V122.68c0-2.77-1.57-4-3.57-4s-3.68,1.22-3.68,4V133.5h-3.57V115.75h3.5v1.78a6.35,6.35,0,0,1,4.73-2,6.14,6.14,0,0,1,4.38,1.61,6.54,6.54,0,0,1,1.78,5V133.5Z"/><path class="cls-1" d="M362.67,133.71c-4,0-7.91-2.45-7.91-9.1s3.92-9.07,7.91-9.07a7.3,7.3,0,0,1,5.85,2.48l-2.45,2.39a4.11,4.11,0,0,0-3.4-1.68,4,4,0,0,0-3.29,1.57c-.77,1-1.05,2.24-1.05,4.31s.28,3.36,1.05,4.34a4,4,0,0,0,3.29,1.57,4.11,4.11,0,0,0,3.4-1.68l2.45,2.35A7.34,7.34,0,0,1,362.67,133.71Z"/><path class="cls-1" d="M374.68,125.66c0,3,1.61,5,4.51,5a5.3,5.3,0,0,0,4.31-1.82l2.27,2.13a8.32,8.32,0,0,1-6.65,2.77c-4.44,0-8-2.35-8-9.1,0-5.74,3-9.07,7.53-9.07,4.76,0,7.52,3.5,7.52,8.54v1.58Zm7.49-4.9a3.66,3.66,0,0,0-3.5-2.24,3.71,3.71,0,0,0-3.54,2.24,5.52,5.52,0,0,0-.45,2.41h8A5.65,5.65,0,0,0,382.17,120.76Z"/><path class="cls-1" d="M405.34,133.5v-21l-4.87,4.27v-4l4.87-4.2h3.57V133.5Z"/><path class="cls-1" d="M422.7,133.71c-4.27,0-7.67-2.73-7.67-7.25a6.59,6.59,0,0,1,3.43-5.84,6.09,6.09,0,0,1-3-5.36c0-4.17,3.19-6.9,7.25-6.9s7.28,2.73,7.28,6.9a6.09,6.09,0,0,1-3,5.36,6.59,6.59,0,0,1,3.43,5.84C430.4,131,427,133.71,422.7,133.71Zm0-11.48a4.15,4.15,0,1,0,4.09,4.16A4.09,4.09,0,0,0,422.7,122.23Zm0-10.68a3.62,3.62,0,0,0-3.68,3.81,3.7,3.7,0,1,0,7.39,0A3.65,3.65,0,0,0,422.7,111.55Z"/><path class="cls-1" d="M447.51,129.75v3.75h-3.46v-3.75H434v-3.32l8.79-17.86h3.85l-8.75,17.86h6.2v-5.81h3.46v5.81h2.66v3.32Z"/><path class="cls-1" d="M460.71,133.71a6.86,6.86,0,0,1-7.18-7.14V115.5a7.2,7.2,0,0,1,14.39,0v11.07A6.89,6.89,0,0,1,460.71,133.71Zm3.64-18.1c0-2.42-1.37-4.06-3.64-4.06s-3.61,1.64-3.61,4.06v10.85c0,2.42,1.33,4.06,3.61,4.06s3.64-1.64,3.64-4.06Z"/><polygon class="cls-1" points="317.82 43.08 283.85 60.28 283.85 43.08 317.82 43.08"/><polygon class="cls-1" points="33.98 0 0 17.2 0 0 33.98 0"/><path class="cls-1" d="M112.43,43.7V149.77h33.25V85.12s.58-12.25,12.83-12.25,12.84,12.25,12.84,12.25v64.65h33.54v-65s.29-12.25,12.54-12.25,12.25,12.84,12.25,12.84v64.36h33.83V85.12s-.87-41.42-44.33-41.42c0,0-16.62,0-28.58,9,0,0-6.13-9.33-26-9.33h-52.2Z"/><path class="cls-1" d="M60.16,43.75S43.23,42.8,34,50.67V4.74L.22,22V149.77H64.75s38.5-3.22,38.5-33.91V80.42S102.59,43.75,60.16,43.75Zm9.55,64c0,13.41-11.81,14.29-11.81,14.29H34l0-39.52s2.78-10.36,18.24-10.36,17.5,10.5,17.5,10.5Z"/></g></g></svg>